<svg width="210" height="69" viewBox="0 0 210 69" fill="none" xmlns="http://www.w3.org/2000/svg">
<path d="M12.5806 44.597C9.83438 44.597 7.46629 44.1791 5.4763 43.3433C3.48632 42.5075 2.49132 41.214 2.49132 39.4628C2.49132 39.3036 2.53112 38.9852 2.61072 38.5076C2.69032 38.03 2.94902 37.5723 3.38682 37.1345C3.86441 36.6569 4.42161 36.4181 5.05841 36.4181C5.6554 36.4181 6.133 36.6171 6.4912 37.0151C6.84939 37.3733 6.98869 37.8111 6.90909 38.3285C6.86929 38.5673 6.78969 38.8459 6.6703 39.1643C6.5509 39.4827 6.4912 39.7016 6.4912 39.821C6.4912 40.4578 7.04839 41.0747 8.16279 41.6717C9.27718 42.2289 10.5707 42.5075 12.0433 42.5075C14.4312 42.5075 16.3615 41.9702 17.8341 40.8956C19.3067 39.821 20.242 38.3285 20.64 36.4181C20.7196 36.0202 20.7594 35.7217 20.7594 35.5227C20.7594 34.2889 20.242 33.3138 19.2072 32.5974C18.1724 31.8412 16.5804 31.0452 14.4312 30.2094C12.7597 29.5328 11.3866 28.896 10.312 28.299C9.23738 27.702 8.32198 26.9458 7.56579 26.0304C6.84939 25.0752 6.4912 23.921 6.4912 22.5678C6.4912 19.6625 7.68519 17.4735 10.0732 16.0009C12.4612 14.4885 15.3665 13.7323 18.7893 13.7323C21.5355 13.7323 23.8638 14.1104 25.7742 14.8666C27.6846 15.6228 28.6398 16.8566 28.6398 18.568C28.6398 18.7272 28.6 19.0456 28.5204 19.5232C28.4408 19.961 28.1622 20.3788 27.6846 20.7768C27.2468 21.1748 26.6896 21.3738 26.013 21.3738C25.4558 21.3738 24.9981 21.2146 24.6399 20.8962C24.2817 20.5778 24.1225 20.16 24.1623 19.6426C24.2419 19.4436 24.3215 19.2247 24.4011 18.9859C24.4807 18.7471 24.5603 18.5282 24.6399 18.3292C24.7593 17.6924 24.3016 17.1153 23.2668 16.5979C22.2718 16.0407 20.9982 15.7621 19.446 15.7621C17.3764 15.7621 15.6849 16.1203 14.3715 16.8367C13.0582 17.5531 12.2224 18.6874 11.8642 20.2395C11.7846 20.6375 11.7448 20.936 11.7448 21.135C11.7448 22.4484 12.2821 23.5031 13.3567 24.2991C14.4312 25.0553 16.0431 25.8712 18.1923 26.7468C19.9037 27.4632 21.2768 28.1199 22.3116 28.7169C23.3862 29.3139 24.2817 30.09 24.9981 31.0452C25.7543 31.9606 26.1324 33.0949 26.1324 34.4481C26.1324 34.9257 26.0727 35.463 25.9533 36.06C25.3961 38.8459 23.8837 40.9752 21.4161 42.4478C18.9883 43.8806 16.0431 44.597 12.5806 44.597ZM42.6878 44.597C38.8272 44.597 35.8224 43.5622 33.6732 41.4926C31.5638 39.423 30.5091 36.6171 30.5091 33.075C30.5091 31.7616 30.6484 30.4681 30.927 29.1945C31.922 24.3389 34.0712 20.5579 37.3746 17.8516C40.7177 15.1054 44.6977 13.7323 49.3145 13.7323C52.0607 13.7323 54.3094 14.1502 56.0605 14.986C57.8117 15.8218 58.6873 17.0556 58.6873 18.6874C58.6873 18.8466 58.6475 19.165 58.5679 19.6426C58.4485 20.16 58.1699 20.6574 57.7321 21.135C57.2943 21.6126 56.7769 21.8514 56.1799 21.8514C55.5431 21.8514 55.0854 21.6723 54.8068 21.3141C54.5282 20.9161 54.4287 20.4584 54.5083 19.9411C54.5879 19.7023 54.6874 19.4436 54.8068 19.165C54.9262 18.8466 55.0058 18.5879 55.0456 18.3889C55.165 17.7521 54.7073 17.175 53.6726 16.6576C52.6776 16.1004 51.4836 15.8218 50.0906 15.8218C46.5086 15.8218 43.5037 17.0158 41.0759 19.4038C38.6481 21.7519 36.9965 25.115 36.1209 29.493C35.8821 30.687 35.7627 31.9009 35.7627 33.1347C35.7627 35.9207 36.4592 38.1892 37.8522 39.9404C39.2849 41.6916 41.4938 42.5672 44.4788 42.5672C45.9912 42.5672 47.6031 42.3085 49.3145 41.7911C51.0259 41.2339 52.5383 40.5175 53.8517 39.6419L53.9711 41.1941C52.6975 42.1891 51.0657 43.005 49.0757 43.6418C47.1255 44.2786 44.9962 44.597 42.6878 44.597ZM69.6459 11.1055C68.8499 11.1055 68.2131 10.8866 67.7355 10.4488C67.2579 10.011 67.0191 9.41402 67.0191 8.65782C67.0191 7.50363 67.3972 6.52854 68.1534 5.73254C68.9494 4.93655 69.8847 4.53855 70.9593 4.53855C71.7951 4.53855 72.4319 4.75745 72.8697 5.19525C73.3473 5.63304 73.5861 6.23004 73.5861 6.98624C73.5861 7.14543 73.5463 7.42403 73.4667 7.82203C73.2677 8.81702 72.8299 9.61302 72.1533 10.21C71.4767 10.807 70.6409 11.1055 69.6459 11.1055ZM65.2282 44.597C64.1536 44.597 63.2979 44.1791 62.6611 43.3433C62.0641 42.4677 61.7656 41.3533 61.7656 40.0001C61.7656 39.4031 61.8253 38.7862 61.9447 38.1494L66.3625 16.2994C64.8899 16.0606 63.6561 15.7422 62.6611 15.3442L62.7208 14.8666L72.0936 13.9114L67.1385 38.2091C66.9793 39.1643 66.8997 39.8807 66.8997 40.3583C66.8997 41.4727 67.1783 42.0299 67.7355 42.0299C68.5315 42.0299 69.4668 41.2936 70.5414 39.821C71.6558 38.3086 72.5115 36.7564 73.1085 35.1645L74.2428 35.7615C73.208 38.3484 71.9145 40.4777 70.3623 42.1493C68.8101 43.7811 67.0987 44.597 65.2282 44.597ZM94.3625 13.7323C98.1833 13.7323 101.009 14.2895 102.84 15.4039C104.71 16.5183 105.646 18.0904 105.646 20.1202C105.646 20.6773 105.586 21.2544 105.467 21.8514C104.671 25.7916 101.865 28.5776 97.049 30.2094C92.273 31.8014 87.1588 32.677 81.7062 32.8362C81.6266 35.7814 82.3032 38.1494 83.736 39.9404C85.1688 41.6916 87.3777 42.5672 90.3626 42.5672C91.875 42.5672 93.5068 42.3085 95.258 41.7911C97.049 41.2339 98.641 40.5175 100.034 39.6419L100.153 41.1941C98.8798 42.1493 97.2082 42.9652 95.1386 43.6418C93.1088 44.2786 90.9397 44.597 88.6313 44.597C84.7708 44.597 81.7659 43.5622 79.6167 41.4926C77.4675 39.423 76.3929 36.6171 76.3929 33.075C76.3929 31.7616 76.5322 30.4681 76.8108 29.1945C77.8058 24.4583 79.8555 20.6972 82.9599 17.9113C86.1041 15.1253 89.9049 13.7323 94.3625 13.7323ZM100.87 22.0305C100.949 21.4733 100.989 21.0753 100.989 20.8365C100.989 19.4038 100.452 18.2297 99.3773 17.3143C98.3425 16.3591 96.6709 15.8815 94.3625 15.8815C91.1387 15.8815 88.4721 17.1949 86.3628 19.8217C84.2534 22.4086 82.8405 25.4732 82.1241 29.0154C81.9649 29.8114 81.8654 30.3885 81.8256 30.7467C86.522 30.4681 90.7208 29.6721 94.4222 28.3587C98.1236 27.0055 100.273 24.8961 100.87 22.0305ZM145.028 35.463C143.914 38.0897 142.461 40.2787 140.67 42.0299C138.879 43.7413 136.869 44.597 134.64 44.597C133.327 44.597 132.272 44.0796 131.476 43.0448C130.68 42.01 130.282 40.6767 130.282 39.0449C130.282 38.4479 130.342 37.7912 130.461 37.0748L132.431 27.5229C133.108 24.2593 133.446 21.8514 133.446 20.2993C133.446 18.9063 133.187 17.9113 132.67 17.3143C132.153 16.7173 131.297 16.4188 130.103 16.4188C128.75 16.4188 127.118 17.3143 125.208 19.1053C123.297 20.8564 121.387 23.2046 119.476 26.1498L115.835 44L108.134 44.597L113.865 16.5382C112.75 16.3392 111.517 15.981 110.163 15.4636L110.283 14.8666L121.984 13.6726L120.312 21.9708C121.904 19.6227 123.775 17.6725 125.924 16.1203C128.113 14.5283 130.441 13.7323 132.909 13.7323C135.536 13.7323 137.565 14.3094 138.998 15.4636C140.431 16.578 141.147 18.2894 141.147 20.5977C141.147 21.6723 141.048 22.6275 140.849 23.4633L137.864 37.9703C137.705 38.7663 137.625 39.3434 137.625 39.7016C137.625 40.6966 137.924 41.1941 138.521 41.1941C139.197 41.1941 140.053 40.4976 141.088 39.1046C142.162 37.7116 143.018 36.2589 143.655 34.7466L145.028 35.463ZM159.765 44.597C155.586 44.597 152.362 43.5622 150.094 41.4926C147.825 39.423 146.691 36.5972 146.691 33.0153C146.691 31.7019 146.83 30.4283 147.109 29.1945C148.104 24.3389 150.352 20.5579 153.855 17.8516C157.357 15.1054 161.536 13.7323 166.392 13.7323C169.655 13.7323 172.182 14.2298 173.973 15.2248C175.804 16.18 176.72 17.5929 176.72 19.4635C176.72 19.7023 176.68 20.1003 176.6 20.6574C176.441 21.334 176.063 21.9708 175.466 22.5678C174.909 23.125 174.272 23.4036 173.555 23.4036C172.839 23.4036 172.302 23.2245 171.944 22.8663C171.585 22.5081 171.406 22.0703 171.406 21.5529C171.406 21.2345 171.526 20.8166 171.764 20.2993C172.003 19.7819 172.143 19.4038 172.182 19.165C172.342 18.4884 171.944 17.8516 170.988 17.2546C170.073 16.6576 168.879 16.3591 167.406 16.3591C164.302 16.3591 161.635 17.4735 159.407 19.7023C157.178 21.8912 155.626 25.0951 154.75 29.3139C154.471 30.5477 154.332 31.8213 154.332 33.1347C154.332 35.7615 154.969 37.9106 156.243 39.5822C157.516 41.214 159.486 42.0299 162.153 42.0299C163.705 42.0299 165.377 41.7513 167.168 41.1941C168.959 40.6369 170.551 39.8608 171.944 38.8658L172.302 40.8359C170.829 41.9105 168.998 42.806 166.809 43.5224C164.62 44.2388 162.272 44.597 159.765 44.597ZM196.05 13.7323C200.268 13.7323 203.373 14.2696 205.363 15.3442C207.393 16.379 208.407 17.971 208.407 20.1202C208.407 20.6375 208.348 21.2345 208.228 21.9111C207.472 25.7319 204.766 28.4781 200.109 30.1497C195.453 31.7815 190.279 32.6969 184.587 32.8959C184.508 35.6421 185.105 37.8509 186.378 39.5225C187.652 41.1941 189.622 42.0299 192.289 42.0299C193.881 42.0299 195.612 41.7513 197.482 41.1941C199.393 40.6369 201.104 39.8608 202.617 38.8658L202.975 40.8359C201.502 41.9105 199.612 42.806 197.303 43.5224C194.995 44.2388 192.587 44.597 190.08 44.597C185.901 44.597 182.657 43.5622 180.349 41.4926C178.08 39.423 176.946 36.5773 176.946 32.9556C176.946 31.9606 177.085 30.7069 177.364 29.1945C178.359 24.4185 180.508 20.6574 183.811 17.9113C187.115 15.1253 191.194 13.7323 196.05 13.7323ZM201.661 20.8365C201.661 19.4834 201.204 18.4088 200.288 17.6128C199.413 16.8168 197.98 16.4188 195.99 16.4188C193.164 16.4188 190.796 17.6725 188.886 20.1799C187.015 22.6474 185.741 25.5926 185.065 29.0154C184.985 29.294 184.906 29.7517 184.826 30.3885C196.05 29.3139 201.661 26.1299 201.661 20.8365Z" fill="url(#paint0_linear_2033_2861)"/>
<path d="M17.3077 63.4987C16.9935 64.272 16.5887 64.9125 16.0933 65.42C15.5978 65.9275 15.0662 66.1813 14.4982 66.1813C14.172 66.1813 13.9303 66.0423 13.7732 65.7644C13.6282 65.4744 13.5557 65.1058 13.5557 64.6587C13.5557 64.3808 13.5859 64.0787 13.6463 63.7524L14.2626 60.7798C14.4197 59.9702 14.4982 59.366 14.4982 58.9673C14.4982 58.4356 14.3955 58.0549 14.1901 57.8253C13.9847 57.5837 13.6584 57.4628 13.2113 57.4628C12.7763 57.4628 12.299 57.7045 11.7794 58.1879C11.2719 58.6712 10.7523 59.366 10.2206 60.2723L9.06054 66L7.50174 66.1813L8.87928 59.4929C8.9397 59.1666 8.96991 58.9189 8.96991 58.7498C8.96991 57.8918 8.54698 57.4628 7.70112 57.4628C7.22985 57.4628 6.73442 57.6985 6.21482 58.1697C5.7073 58.6289 5.1877 59.2996 4.65602 60.1817L3.47785 66L1.82842 66.1813L3.5866 57.5716C3.11534 57.4749 2.74074 57.3722 2.46282 57.2635L2.49907 57.1184L5.32666 56.8284L4.89165 58.9854C5.33875 58.3329 5.84022 57.8072 6.39607 57.4085C6.96401 57.0097 7.57424 56.8103 8.22676 56.8103C8.96387 56.8103 9.51972 56.9734 9.89432 57.2997C10.281 57.626 10.4743 58.0912 10.4743 58.6954C10.4743 58.8645 10.4683 58.9975 10.4562 59.0941C10.8912 58.4054 11.3867 57.8556 11.9425 57.4447C12.5104 57.0218 13.1207 56.8103 13.7732 56.8103C15.3199 56.8103 16.0933 57.5233 16.0933 58.9491C16.0933 59.2512 16.057 59.6017 15.9845 60.0004L15.0964 64.3324C15.0601 64.5137 15.042 64.6829 15.042 64.84C15.042 65.0091 15.0662 65.1481 15.1145 65.2568C15.1628 65.3535 15.2353 65.4019 15.332 65.4019C15.5495 65.4019 15.8274 65.1723 16.1658 64.7131C16.5162 64.2539 16.776 63.7887 16.9452 63.3174L17.3077 63.4987ZM21.3159 66.1813C20.5546 66.1813 19.9987 65.9396 19.6483 65.4562C19.2979 64.9608 19.1227 64.3264 19.1227 63.553C19.1227 63.1422 19.171 62.6951 19.2677 62.2117C19.4489 61.3055 19.7631 60.4475 20.2102 59.6379C20.6694 58.8162 21.2736 58.1395 22.0228 57.6078C22.784 57.0762 23.6722 56.8103 24.6872 56.8103C25.4002 56.8103 25.9741 57.0278 26.4092 57.4628L26.5179 56.9734H28.0586L26.5542 64.4231C26.5058 64.6889 26.4817 64.8641 26.4817 64.9487C26.4817 65.2266 26.5783 65.3656 26.7717 65.3656C27.0013 65.3656 27.2852 65.1421 27.6236 64.695C27.974 64.2358 28.2338 63.7766 28.403 63.3174L28.7655 63.4987C28.4513 64.272 28.0465 64.9125 27.5511 65.42C27.0556 65.9275 26.524 66.1813 25.956 66.1813C25.6418 66.1813 25.4002 66.0483 25.231 65.7825C25.0618 65.5167 24.9772 65.1783 24.9772 64.7675C24.9772 64.5741 24.9954 64.3687 25.0316 64.1512L25.376 62.4474C24.8202 63.6799 24.1978 64.6104 23.5091 65.2387C22.8324 65.8671 22.1013 66.1813 21.3159 66.1813ZM22.1678 65.4381C22.6511 65.4381 23.1526 65.13 23.6722 64.5137C24.2039 63.8853 24.6631 63.1603 25.0497 62.3386C25.4485 61.5048 25.6962 60.8342 25.7929 60.3267L26.246 58.1516C26.0889 57.922 25.8835 57.7347 25.6298 57.5897C25.3881 57.4447 25.1041 57.3722 24.7779 57.3722C24.1495 57.3722 23.5634 57.5897 23.0197 58.0247C22.488 58.4597 22.0409 59.0216 21.6784 59.7104C21.3159 60.3871 21.0561 61.1 20.899 61.8492C20.8144 62.248 20.7721 62.7011 20.7721 63.2087C20.7721 63.8491 20.8748 64.3808 21.0802 64.8037C21.2977 65.2266 21.6603 65.4381 22.1678 65.4381ZM36.8541 56.7559C37.132 56.7559 37.3434 56.8164 37.4884 56.9372C37.6455 57.058 37.7241 57.2332 37.7241 57.4628C37.7241 57.6803 37.6516 57.8737 37.5066 58.0429C37.3616 58.212 37.1803 58.2966 36.9628 58.2966C36.7936 58.2966 36.6788 58.2604 36.6184 58.1879C36.558 58.1154 36.5097 58.0006 36.4734 57.8435C36.4372 57.6743 36.3647 57.5897 36.2559 57.5897C35.4705 57.5897 34.5702 58.3691 33.5552 59.9279L32.3226 66L30.6913 66.1813L32.4495 57.5716C31.9783 57.4749 31.5976 57.3722 31.3076 57.2635L31.3257 57.1366L34.1896 56.8284L33.7727 58.8585C34.1473 58.2422 34.6125 57.7408 35.1684 57.3541C35.7363 56.9553 36.2982 56.7559 36.8541 56.7559ZM48.4982 56.7559C48.7399 56.7559 48.9332 56.8164 49.0782 56.9372C49.2232 57.058 49.2957 57.2272 49.2957 57.4447C49.2957 57.6743 49.2232 57.8737 49.0782 58.0429C48.9332 58.212 48.758 58.2966 48.5526 58.2966C48.3834 58.2966 48.2686 58.2604 48.2082 58.1879C48.1478 58.1154 48.0994 58.0006 48.0632 57.8435C48.039 57.6743 47.9786 57.5897 47.8819 57.5897C47.749 57.5897 47.5859 57.6864 47.3925 57.8797C47.1992 58.061 47.0844 58.1697 47.0482 58.206L44.2568 60.6529L46.1963 64.5137C46.3171 64.7312 46.45 64.8883 46.595 64.985C46.74 65.0816 46.9152 65.13 47.1207 65.13C47.3744 65.13 47.6161 64.9427 47.8457 64.5681C48.0874 64.1935 48.3049 63.7283 48.4982 63.1724L48.8245 63.3718C48.6432 64.0485 48.3472 64.6889 47.9363 65.2931C47.5255 65.8852 47.0361 66.1813 46.4681 66.1813C46.1056 66.1813 45.8096 66.0544 45.58 65.8006C45.3504 65.5469 45.0845 65.1239 44.7825 64.5318L43.2418 61.523L41.8824 62.7193L41.2117 66L39.5623 66.1813L42.0817 53.9283C41.5984 53.8317 41.2177 53.729 40.9398 53.6202L40.9579 53.4752L43.8218 53.1852L42.0636 61.7949L46.6131 57.8253C46.6615 57.777 46.8004 57.6501 47.03 57.4447C47.2596 57.2272 47.5013 57.058 47.7551 56.9372C48.0088 56.8164 48.2565 56.7559 48.4982 56.7559ZM56.3851 56.8103C57.5452 56.8103 58.4031 56.9795 58.959 57.3178C59.5269 57.6562 59.8109 58.1335 59.8109 58.7498C59.8109 58.9189 59.7927 59.0941 59.7565 59.2754C59.5148 60.4717 58.6629 61.3175 57.2008 61.813C55.7507 62.2963 54.198 62.5622 52.5425 62.6105C52.5183 63.5047 52.7237 64.2237 53.1588 64.7675C53.5938 65.2991 54.2644 65.565 55.1707 65.565C55.6299 65.565 56.1253 65.4864 56.657 65.3294C57.2008 65.1602 57.6841 64.9427 58.107 64.6768L58.1433 65.1481C57.7566 65.4381 57.2491 65.6858 56.6207 65.8912C56.0045 66.0846 55.3459 66.1813 54.6451 66.1813C53.4729 66.1813 52.5606 65.8671 51.9081 65.2387C51.2556 64.6104 50.9293 63.7585 50.9293 62.683C50.9293 62.2842 50.9716 61.8915 51.0562 61.5048C51.3583 60.0669 51.9806 58.925 52.9231 58.0791C53.8777 57.2332 55.0317 56.8103 56.3851 56.8103ZM58.3608 59.3298C58.385 59.1606 58.3971 59.0398 58.3971 58.9673C58.3971 58.5322 58.2339 58.1758 57.9077 57.8978C57.5935 57.6078 57.086 57.4628 56.3851 57.4628C55.4063 57.4628 54.5967 57.8616 53.9563 58.6591C53.3158 59.4446 52.8869 60.375 52.6694 61.4505C52.621 61.6921 52.5908 61.8674 52.5787 61.9761C54.0046 61.8915 55.2794 61.6499 56.4032 61.2511C57.527 60.8402 58.1795 60.1998 58.3608 59.3298ZM64.1007 64.2418C64.0644 64.4231 64.0463 64.5741 64.0463 64.695C64.0463 65.1662 64.2819 65.4019 64.7532 65.4019C65.0795 65.4019 65.4057 65.2085 65.732 64.8218C66.0582 64.4231 66.3483 63.9216 66.602 63.3174L67.0008 63.5168C66.6866 64.3143 66.2758 64.9608 65.7682 65.4562C65.2728 65.9396 64.6686 66.1813 63.9557 66.1813C63.5569 66.1813 63.2065 66.0725 62.9044 65.855C62.6023 65.6254 62.4512 65.281 62.4512 64.8218C62.4512 64.6647 62.4694 64.5077 62.5056 64.3506L63.8832 57.6078H62.3606L62.4875 56.9734H64.0101L64.2094 55.9584C64.7169 55.7772 65.0855 55.2998 65.3151 54.5265H66.0764L65.587 56.9734H68.1789L68.0521 57.6078H65.442L64.1007 64.2418ZM73.0396 56.0128C72.7979 56.0128 72.6046 55.9463 72.4596 55.8134C72.3146 55.6805 72.2421 55.4992 72.2421 55.2696C72.2421 54.9192 72.3569 54.6232 72.5864 54.3815C72.8281 54.1398 73.1121 54.019 73.4383 54.019C73.6921 54.019 73.8854 54.0854 74.0184 54.2183C74.1634 54.3513 74.2359 54.5325 74.2359 54.7621C74.2359 54.8105 74.2238 54.895 74.1996 55.0159C74.1392 55.318 74.0063 55.5596 73.8009 55.7409C73.5954 55.9222 73.3417 56.0128 73.0396 56.0128ZM71.6983 66.1813C71.372 66.1813 71.1122 66.0544 70.9189 65.8006C70.7376 65.5348 70.647 65.1964 70.647 64.7856C70.647 64.6043 70.6651 64.417 70.7014 64.2237L72.0427 57.5897C71.5956 57.5172 71.221 57.4205 70.9189 57.2997L70.937 57.1547L73.7827 56.8647L72.2783 64.2418C72.23 64.5318 72.2058 64.7493 72.2058 64.8943C72.2058 65.2327 72.2904 65.4019 72.4596 65.4019C72.7012 65.4019 72.9852 65.1783 73.3115 64.7312C73.6498 64.272 73.9096 63.8008 74.0909 63.3174L74.4353 63.4987C74.1211 64.2841 73.7284 64.9306 73.2571 65.4381C72.7858 65.9335 72.2662 66.1813 71.6983 66.1813ZM87.4497 63.4987C87.1356 64.272 86.7307 64.9125 86.2353 65.42C85.7399 65.9275 85.2082 66.1813 84.6403 66.1813C84.314 66.1813 84.0723 66.0423 83.9152 65.7644C83.7581 65.4744 83.6796 65.1118 83.6796 64.6768C83.6796 64.3506 83.7159 64.0424 83.7884 63.7524L84.4046 60.7798C84.5496 60.0669 84.6221 59.4869 84.6221 59.0398C84.6221 58.4839 84.5134 58.0851 84.2959 57.8435C84.0784 57.5897 83.74 57.4628 83.2808 57.4628C82.7975 57.4628 82.2477 57.7468 81.6314 58.3147C81.0151 58.8706 80.4109 59.6621 79.8188 60.6892L78.7494 66L77.1 66.1813L78.8582 57.5716C78.3869 57.4749 78.0123 57.3722 77.7344 57.2635L77.7706 57.1184L80.5982 56.8284L80.0726 59.4567C80.5318 58.6954 81.0816 58.067 81.722 57.5716C82.3746 57.0641 83.0694 56.8103 83.8065 56.8103C84.5798 56.8103 85.178 56.9916 85.6009 57.3541C86.0238 57.7045 86.2353 58.2543 86.2353 59.0035C86.2353 59.3056 86.1991 59.6379 86.1266 60.0004L85.2384 64.3324C85.2022 64.5137 85.184 64.6889 85.184 64.8581C85.184 65.2206 85.2747 65.4019 85.4559 65.4019C85.6855 65.4019 85.9695 65.1723 86.3078 64.7131C86.6462 64.2418 86.8999 63.7766 87.0691 63.3174L87.4497 63.4987ZM98.5569 56.7559C98.7986 56.7559 98.9919 56.8164 99.1369 56.9372C99.2819 57.058 99.3544 57.2272 99.3544 57.4447C99.3544 57.6743 99.2819 57.8737 99.1369 58.0429C98.9919 58.212 98.8167 58.2966 98.6113 58.2966C98.4421 58.2966 98.3273 58.2604 98.2669 58.1879C98.2065 58.1154 98.1581 58.0006 98.1219 57.8435C98.0977 57.6743 98.0373 57.5897 97.9406 57.5897C97.8561 57.5897 97.7533 57.638 97.6325 57.7347C97.5117 57.8314 97.3969 57.9281 97.2881 58.0247C97.4694 58.3268 97.56 58.6954 97.56 59.1304C97.56 59.3721 97.5358 59.5956 97.4875 59.801C97.2942 60.7436 96.8168 61.4746 96.0556 61.9942C95.2943 62.5138 94.3397 62.7736 93.1917 62.7736C92.4546 62.7736 91.8383 62.6649 91.3429 62.4474C90.9441 62.7132 90.7085 62.9911 90.636 63.2812C90.5877 63.5591 90.6904 63.7705 90.9441 63.9156C91.21 64.0485 91.5967 64.1149 92.1042 64.1149H94.6055C95.246 64.1149 95.7716 64.2539 96.1825 64.5318C96.5933 64.7977 96.7987 65.1964 96.7987 65.7281C96.7987 65.9094 96.7866 66.0483 96.7625 66.145C96.5812 67.0392 96.0616 67.6978 95.2037 68.1207C94.3578 68.5436 93.2582 68.7551 91.9048 68.7551C90.8535 68.7551 90.05 68.604 89.4941 68.302C88.9382 67.9999 88.6603 67.5467 88.6603 66.9425C88.6603 66.5559 88.7691 66.1813 88.9866 65.8187C89.2041 65.4562 89.5364 65.1662 89.9835 64.9487C89.8143 64.8279 89.6874 64.6829 89.6029 64.5137C89.5183 64.3324 89.476 64.1512 89.476 63.9699C89.476 63.2691 89.917 62.6528 90.7991 62.1211C90.2795 61.7103 90.0197 61.1544 90.0197 60.4536C90.0197 60.3327 90.0439 60.1152 90.0922 59.801C90.2856 58.8585 90.7629 58.1274 91.5242 57.6078C92.2975 57.0762 93.2582 56.8103 94.4061 56.8103C95.542 56.8103 96.3879 57.0701 96.9437 57.5897C97.2217 57.336 97.4875 57.1366 97.7413 56.9916C97.995 56.8345 98.2669 56.7559 98.5569 56.7559ZM95.9287 59.801C95.977 59.511 96.0012 59.2935 96.0012 59.1485C96.0012 58.641 95.8562 58.2362 95.5662 57.9341C95.2883 57.6199 94.8653 57.4628 94.2974 57.4628C93.5965 57.4628 93.0165 57.6864 92.5573 58.1335C92.0981 58.5685 91.8021 59.1243 91.6692 59.801C91.6208 60.0065 91.5967 60.224 91.5967 60.4536C91.5967 60.9732 91.7417 61.384 92.0317 61.6861C92.3217 61.9882 92.7567 62.1392 93.3367 62.1392C94.0255 62.1392 94.5934 61.9217 95.0405 61.4867C95.4876 61.0396 95.7837 60.4777 95.9287 59.801ZM91.1798 65.2568C91.0348 65.2568 90.8656 65.2448 90.6723 65.2206C90.201 65.5469 89.917 65.9577 89.8204 66.4531C89.7962 66.5981 89.7841 66.7069 89.7841 66.7794C89.7841 67.2386 90.0077 67.5769 90.4548 67.7944C90.9019 68.024 91.4758 68.1388 92.1767 68.1388C93.0588 68.1388 93.808 67.9938 94.4243 67.7038C95.0405 67.4138 95.4151 66.9788 95.5481 66.3988C95.5601 66.3383 95.5662 66.2538 95.5662 66.145C95.5662 65.8187 95.4091 65.5892 95.0949 65.4562C94.7928 65.3233 94.3276 65.2568 93.6992 65.2568H91.1798ZM109.303 56.0128C109.061 56.0128 108.868 55.9463 108.723 55.8134C108.578 55.6805 108.505 55.4992 108.505 55.2696C108.505 54.9192 108.62 54.6232 108.85 54.3815C109.091 54.1398 109.375 54.019 109.702 54.019C109.955 54.019 110.149 54.0854 110.282 54.2183C110.427 54.3513 110.499 54.5325 110.499 54.7621C110.499 54.8105 110.487 54.895 110.463 55.0159C110.402 55.318 110.27 55.5596 110.064 55.7409C109.859 55.9222 109.605 56.0128 109.303 56.0128ZM107.962 66.1813C107.635 66.1813 107.375 66.0544 107.182 65.8006C107.001 65.5348 106.91 65.1964 106.91 64.7856C106.91 64.6043 106.928 64.417 106.965 64.2237L108.306 57.5897C107.859 57.5172 107.484 57.4205 107.182 57.2997L107.2 57.1547L110.046 56.8647L108.542 64.2418C108.493 64.5318 108.469 64.7493 108.469 64.8943C108.469 65.2327 108.554 65.4019 108.723 65.4019C108.965 65.4019 109.248 65.1783 109.575 64.7312C109.913 64.272 110.173 63.8008 110.354 63.3174L110.699 63.4987C110.384 64.2841 109.992 64.9306 109.52 65.4381C109.049 65.9335 108.529 66.1813 107.962 66.1813ZM123.713 63.4987C123.399 64.272 122.994 64.9125 122.499 65.42C122.003 65.9275 121.471 66.1813 120.904 66.1813C120.577 66.1813 120.336 66.0423 120.179 65.7644C120.021 65.4744 119.943 65.1118 119.943 64.6768C119.943 64.3506 119.979 64.0424 120.052 63.7524L120.668 60.7798C120.813 60.0669 120.885 59.4869 120.885 59.0398C120.885 58.4839 120.777 58.0851 120.559 57.8435C120.342 57.5897 120.003 57.4628 119.544 57.4628C119.061 57.4628 118.511 57.7468 117.895 58.3147C117.278 58.8706 116.674 59.6621 116.082 60.6892L115.013 66L113.363 66.1813L115.121 57.5716C114.65 57.4749 114.276 57.3722 113.998 57.2635L114.034 57.1184L116.862 56.8284L116.336 59.4567C116.795 58.6954 117.345 58.067 117.985 57.5716C118.638 57.0641 119.333 56.8103 120.07 56.8103C120.843 56.8103 121.441 56.9916 121.864 57.3541C122.287 57.7045 122.499 58.2543 122.499 59.0035C122.499 59.3056 122.462 59.6379 122.39 60.0004L121.502 64.3324C121.465 64.5137 121.447 64.6889 121.447 64.8581C121.447 65.2206 121.538 65.4019 121.719 65.4019C121.949 65.4019 122.233 65.1723 122.571 64.7131C122.909 64.2418 123.163 63.7766 123.332 63.3174L123.713 63.4987ZM128.15 64.2418C128.114 64.4231 128.096 64.5741 128.096 64.695C128.096 65.1662 128.331 65.4019 128.802 65.4019C129.129 65.4019 129.455 65.2085 129.781 64.8218C130.108 64.4231 130.398 63.9216 130.651 63.3174L131.05 63.5168C130.736 64.3143 130.325 64.9608 129.818 65.4562C129.322 65.9396 128.718 66.1813 128.005 66.1813C127.606 66.1813 127.256 66.0725 126.954 65.855C126.652 65.6254 126.501 65.281 126.501 64.8218C126.501 64.6647 126.519 64.5077 126.555 64.3506L127.932 57.6078H126.41L126.537 56.9734H128.059L128.259 55.9584C128.766 55.7772 129.135 55.2998 129.364 54.5265H130.126L129.636 56.9734H132.228L132.101 57.6078H129.491L128.15 64.2418ZM139.318 56.8103C140.478 56.8103 141.336 56.9795 141.892 57.3178C142.46 57.6562 142.744 58.1335 142.744 58.7498C142.744 58.9189 142.726 59.0941 142.69 59.2754C142.448 60.4717 141.596 61.3175 140.134 61.813C138.684 62.2963 137.131 62.5622 135.476 62.6105C135.452 63.5047 135.657 64.2237 136.092 64.7675C136.527 65.2991 137.198 65.565 138.104 65.565C138.563 65.565 139.059 65.4864 139.59 65.3294C140.134 65.1602 140.617 64.9427 141.04 64.6768L141.076 65.1481C140.69 65.4381 140.182 65.6858 139.554 65.8912C138.938 66.0846 138.279 66.1813 137.578 66.1813C136.406 66.1813 135.494 65.8671 134.841 65.2387C134.189 64.6104 133.863 63.7585 133.863 62.683C133.863 62.2842 133.905 61.8915 133.989 61.5048C134.291 60.0669 134.914 58.925 135.856 58.0791C136.811 57.2332 137.965 56.8103 139.318 56.8103ZM141.294 59.3298C141.318 59.1606 141.33 59.0398 141.33 58.9673C141.33 58.5322 141.167 58.1758 140.841 57.8978C140.527 57.6078 140.019 57.4628 139.318 57.4628C138.34 57.4628 137.53 57.8616 136.889 58.6591C136.249 59.4446 135.82 60.375 135.603 61.4505C135.554 61.6921 135.524 61.8674 135.512 61.9761C136.938 61.8915 138.213 61.6499 139.336 61.2511C140.46 60.8402 141.113 60.1998 141.294 59.3298ZM146.599 66.1813C146.273 66.1813 146.013 66.0483 145.819 65.7825C145.626 65.5167 145.529 65.1723 145.529 64.7493C145.529 64.5802 145.548 64.4049 145.584 64.2237L147.705 53.9283C147.221 53.8317 146.841 53.729 146.563 53.6202L146.581 53.4752L149.445 53.1852L147.179 64.2418C147.131 64.5318 147.106 64.7493 147.106 64.8943C147.106 65.2327 147.191 65.4019 147.36 65.4019C147.602 65.4019 147.886 65.1783 148.212 64.7312C148.55 64.272 148.81 63.8008 148.991 63.3174L149.336 63.4987C149.022 64.2841 148.629 64.9306 148.158 65.4381C147.686 65.9335 147.167 66.1813 146.599 66.1813ZM154.734 56.0128C154.492 56.0128 154.299 55.9463 154.154 55.8134C154.009 55.6805 153.936 55.4992 153.936 55.2696C153.936 54.9192 154.051 54.6232 154.281 54.3815C154.522 54.1398 154.806 54.019 155.132 54.019C155.386 54.019 155.58 54.0854 155.713 54.2183C155.858 54.3513 155.93 54.5325 155.93 54.7621C155.93 54.8105 155.918 54.895 155.894 55.0159C155.833 55.318 155.7 55.5596 155.495 55.7409C155.29 55.9222 155.036 56.0128 154.734 56.0128ZM153.392 66.1813C153.066 66.1813 152.806 66.0544 152.613 65.8006C152.432 65.5348 152.341 65.1964 152.341 64.7856C152.341 64.6043 152.359 64.417 152.396 64.2237L153.737 57.5897C153.29 57.5172 152.915 57.4205 152.613 57.2997L152.631 57.1547L155.477 56.8647L153.972 64.2418C153.924 64.5318 153.9 64.7493 153.9 64.8943C153.9 65.2327 153.985 65.4019 154.154 65.4019C154.395 65.4019 154.679 65.1783 155.006 64.7312C155.344 64.272 155.604 63.8008 155.785 63.3174L156.129 63.4987C155.815 64.2841 155.423 64.9306 154.951 65.4381C154.48 65.9335 153.96 66.1813 153.392 66.1813ZM167.313 56.7559C167.555 56.7559 167.748 56.8164 167.893 56.9372C168.038 57.058 168.111 57.2272 168.111 57.4447C168.111 57.6743 168.038 57.8737 167.893 58.0429C167.748 58.212 167.573 58.2966 167.368 58.2966C167.198 58.2966 167.084 58.2604 167.023 58.1879C166.963 58.1154 166.914 58.0006 166.878 57.8435C166.854 57.6743 166.794 57.5897 166.697 57.5897C166.612 57.5897 166.51 57.638 166.389 57.7347C166.268 57.8314 166.153 57.9281 166.044 58.0247C166.226 58.3268 166.316 58.6954 166.316 59.1304C166.316 59.3721 166.292 59.5956 166.244 59.801C166.05 60.7436 165.573 61.4746 164.812 61.9942C164.051 62.5138 163.096 62.7736 161.948 62.7736C161.211 62.7736 160.595 62.6649 160.099 62.4474C159.7 62.7132 159.465 62.9911 159.392 63.2812C159.344 63.5591 159.447 63.7705 159.7 63.9156C159.966 64.0485 160.353 64.1149 160.86 64.1149H163.362C164.002 64.1149 164.528 64.2539 164.939 64.5318C165.35 64.7977 165.555 65.1964 165.555 65.7281C165.555 65.9094 165.543 66.0483 165.519 66.145C165.337 67.0392 164.818 67.6978 163.96 68.1207C163.114 68.5436 162.014 68.7551 160.661 68.7551C159.61 68.7551 158.806 68.604 158.25 68.302C157.695 67.9999 157.417 67.5467 157.417 66.9425C157.417 66.5559 157.525 66.1813 157.743 65.8187C157.96 65.4562 158.293 65.1662 158.74 64.9487C158.571 64.8279 158.444 64.6829 158.359 64.5137C158.275 64.3324 158.232 64.1512 158.232 63.9699C158.232 63.2691 158.673 62.6528 159.555 62.1211C159.036 61.7103 158.776 61.1544 158.776 60.4536C158.776 60.3327 158.8 60.1152 158.849 59.801C159.042 58.8585 159.519 58.1274 160.28 57.6078C161.054 57.0762 162.014 56.8103 163.162 56.8103C164.298 56.8103 165.144 57.0701 165.7 57.5897C165.978 57.336 166.244 57.1366 166.498 56.9916C166.751 56.8345 167.023 56.7559 167.313 56.7559ZM164.685 59.801C164.733 59.511 164.757 59.2935 164.757 59.1485C164.757 58.641 164.612 58.2362 164.322 57.9341C164.045 57.6199 163.622 57.4628 163.054 57.4628C162.353 57.4628 161.773 57.6864 161.314 58.1335C160.854 58.5685 160.558 59.1243 160.425 59.801C160.377 60.0065 160.353 60.224 160.353 60.4536C160.353 60.9732 160.498 61.384 160.788 61.6861C161.078 61.9882 161.513 62.1392 162.093 62.1392C162.782 62.1392 163.35 61.9217 163.797 61.4867C164.244 61.0396 164.54 60.4777 164.685 59.801ZM159.936 65.2568C159.791 65.2568 159.622 65.2448 159.429 65.2206C158.957 65.5469 158.673 65.9577 158.577 66.4531C158.552 66.5981 158.54 66.7069 158.54 66.7794C158.54 67.2386 158.764 67.5769 159.211 67.7944C159.658 68.024 160.232 68.1388 160.933 68.1388C161.815 68.1388 162.564 67.9938 163.181 67.7038C163.797 67.4138 164.171 66.9788 164.304 66.3988C164.316 66.3383 164.322 66.2538 164.322 66.145C164.322 65.8187 164.165 65.5892 163.851 65.4562C163.549 65.3233 163.084 65.2568 162.456 65.2568H159.936ZM174.289 56.8103C175.449 56.8103 176.307 56.9795 176.863 57.3178C177.431 57.6562 177.715 58.1335 177.715 58.7498C177.715 58.9189 177.697 59.0941 177.661 59.2754C177.419 60.4717 176.567 61.3175 175.105 61.813C173.655 62.2963 172.102 62.5622 170.447 62.6105C170.423 63.5047 170.628 64.2237 171.063 64.7675C171.498 65.2991 172.169 65.565 173.075 65.565C173.534 65.565 174.03 65.4864 174.561 65.3294C175.105 65.1602 175.588 64.9427 176.011 64.6768L176.048 65.1481C175.661 65.4381 175.153 65.6858 174.525 65.8912C173.909 66.0846 173.25 66.1813 172.549 66.1813C171.377 66.1813 170.465 65.8671 169.812 65.2387C169.16 64.6104 168.834 63.7585 168.834 62.683C168.834 62.2842 168.876 61.8915 168.96 61.5048C169.263 60.0669 169.885 58.925 170.827 58.0791C171.782 57.2332 172.936 56.8103 174.289 56.8103ZM176.265 59.3298C176.289 59.1606 176.301 59.0398 176.301 58.9673C176.301 58.5322 176.138 58.1758 175.812 57.8978C175.498 57.6078 174.99 57.4628 174.289 57.4628C173.311 57.4628 172.501 57.8616 171.861 58.6591C171.22 59.4446 170.791 60.375 170.574 61.4505C170.525 61.6921 170.495 61.8674 170.483 61.9761C171.909 61.8915 173.184 61.6499 174.308 61.2511C175.431 60.8402 176.084 60.1998 176.265 59.3298ZM190.506 63.4987C190.192 64.272 189.787 64.9125 189.291 65.42C188.796 65.9275 188.264 66.1813 187.696 66.1813C187.37 66.1813 187.128 66.0423 186.971 65.7644C186.814 65.4744 186.736 65.1118 186.736 64.6768C186.736 64.3506 186.772 64.0424 186.845 63.7524L187.461 60.7798C187.606 60.0669 187.678 59.4869 187.678 59.0398C187.678 58.4839 187.57 58.0851 187.352 57.8435C187.135 57.5897 186.796 57.4628 186.337 57.4628C185.854 57.4628 185.304 57.7468 184.688 58.3147C184.071 58.8706 183.467 59.6621 182.875 60.6892L181.806 66L180.156 66.1813L181.914 57.5716C181.443 57.4749 181.069 57.3722 180.791 57.2635L180.827 57.1184L183.654 56.8284L183.129 59.4567C183.588 58.6954 184.138 58.067 184.778 57.5716C185.431 57.0641 186.126 56.8103 186.863 56.8103C187.636 56.8103 188.234 56.9916 188.657 57.3541C189.08 57.7045 189.291 58.2543 189.291 59.0035C189.291 59.3056 189.255 59.6379 189.183 60.0004L188.295 64.3324C188.258 64.5137 188.24 64.6889 188.24 64.8581C188.24 65.2206 188.331 65.4019 188.512 65.4019C188.742 65.4019 189.026 65.1723 189.364 64.7131C189.702 64.2418 189.956 63.7766 190.125 63.3174L190.506 63.4987ZM194.943 64.2418C194.907 64.4231 194.888 64.5741 194.888 64.695C194.888 65.1662 195.124 65.4019 195.595 65.4019C195.922 65.4019 196.248 65.2085 196.574 64.8218C196.9 64.4231 197.19 63.9216 197.444 63.3174L197.843 63.5168C197.529 64.3143 197.118 64.9608 196.61 65.4562C196.115 65.9396 195.511 66.1813 194.798 66.1813C194.399 66.1813 194.049 66.0725 193.747 65.855C193.444 65.6254 193.293 65.281 193.293 64.8218C193.293 64.6647 193.312 64.5077 193.348 64.3506L194.725 57.6078H193.203L193.33 56.9734H194.852L195.052 55.9584C195.559 55.7772 195.928 55.2998 196.157 54.5265H196.919L196.429 56.9734H199.021L198.894 57.6078H196.284L194.943 64.2418ZM206.111 56.8103C207.271 56.8103 208.129 56.9795 208.685 57.3178C209.253 57.6562 209.537 58.1335 209.537 58.7498C209.537 58.9189 209.519 59.0941 209.483 59.2754C209.241 60.4717 208.389 61.3175 206.927 61.813C205.477 62.2963 203.924 62.5622 202.269 62.6105C202.244 63.5047 202.45 64.2237 202.885 64.7675C203.32 65.2991 203.991 65.565 204.897 65.565C205.356 65.565 205.851 65.4864 206.383 65.3294C206.927 65.1602 207.41 64.9427 207.833 64.6768L207.869 65.1481C207.483 65.4381 206.975 65.6858 206.347 65.8912C205.731 66.0846 205.072 66.1813 204.371 66.1813C203.199 66.1813 202.287 65.8671 201.634 65.2387C200.982 64.6104 200.655 63.7585 200.655 62.683C200.655 62.2842 200.698 61.8915 200.782 61.5048C201.084 60.0669 201.707 58.925 202.649 58.0791C203.604 57.2332 204.758 56.8103 206.111 56.8103ZM208.087 59.3298C208.111 59.1606 208.123 59.0398 208.123 58.9673C208.123 58.5322 207.96 58.1758 207.634 57.8978C207.32 57.6078 206.812 57.4628 206.111 57.4628C205.132 57.4628 204.323 57.8616 203.682 58.6591C203.042 59.4446 202.613 60.375 202.395 61.4505C202.347 61.6921 202.317 61.8674 202.305 61.9761C203.731 61.8915 205.006 61.6499 206.129 61.2511C207.253 60.8402 207.906 60.1998 208.087 59.3298Z" fill="url(#paint1_linear_2033_2861)"/>
<defs>
<linearGradient id="paint0_linear_2033_2861" x1="0" y1="24.0002" x2="210" y2="24.0002" gradientUnits="userSpaceOnUse">
<stop stop-color="#00ADCC"/>
<stop offset="1" stop-color="#41B983"/>
</linearGradient>
<linearGradient id="paint1_linear_2033_2861" x1="0" y1="56.3633" x2="210" y2="56.3633" gradientUnits="userSpaceOnUse">
<stop stop-color="#00ADCC"/>
<stop offset="1" stop-color="#41B983"/>
</linearGradient>
</defs>
</svg>
