<svg width="135" height="32" viewBox="0 0 135 32" fill="none" xmlns="http://www.w3.org/2000/svg">
<path d="M8.05155 28.7021C6.294 28.7021 4.77842 28.4346 3.50483 27.8997C2.23124 27.3648 1.59444 26.537 1.59444 25.4162C1.59444 25.3143 1.61991 25.1106 1.67086 24.8049C1.7218 24.4992 1.88737 24.2063 2.16756 23.9261C2.47322 23.6205 2.82983 23.4676 3.23738 23.4676C3.61945 23.4676 3.92512 23.595 4.15436 23.8497C4.38361 24.0789 4.47276 24.3591 4.42182 24.6903C4.39634 24.8431 4.3454 25.0214 4.26899 25.2252C4.19257 25.429 4.15436 25.569 4.15436 25.6455C4.15436 26.053 4.51097 26.4478 5.22418 26.8299C5.93739 27.1865 6.76523 27.3648 7.70768 27.3648C9.23599 27.3648 10.4714 27.0209 11.4138 26.3332C12.3563 25.6455 12.9549 24.6903 13.2096 23.4676C13.2605 23.2129 13.286 23.0219 13.286 22.8945C13.286 22.1049 12.9549 21.4808 12.2926 21.0223C11.6303 20.5384 10.6115 20.0289 9.23599 19.494C8.16618 19.061 7.2874 18.6534 6.59966 18.2714C5.91192 17.8893 5.32607 17.4053 4.8421 16.8195C4.38361 16.2081 4.15436 15.4695 4.15436 14.6034C4.15436 12.744 4.91852 11.343 6.44683 10.4006C7.97514 9.43264 9.83458 8.94867 12.0252 8.94867C13.7827 8.94867 15.2728 9.19065 16.4955 9.67462C17.7181 10.1586 18.3294 10.9482 18.3294 12.0435C18.3294 12.1454 18.304 12.3492 18.253 12.6548C18.2021 12.935 18.0238 13.2025 17.7181 13.4572C17.4379 13.7119 17.0813 13.8393 16.6483 13.8393C16.2917 13.8393 15.9988 13.7374 15.7695 13.5336C15.5403 13.3298 15.4384 13.0624 15.4639 12.7312C15.5148 12.6039 15.5657 12.4638 15.6167 12.311C15.6676 12.1581 15.7186 12.018 15.7695 11.8907C15.8459 11.4831 15.553 11.1138 14.8907 10.7826C14.2539 10.426 13.4388 10.2477 12.4454 10.2477C11.1209 10.2477 10.0384 10.477 9.19779 10.9355C8.35722 11.394 7.82231 12.1199 7.59306 13.1133C7.54212 13.368 7.51664 13.5591 7.51664 13.6864C7.51664 14.527 7.86051 15.202 8.54825 15.7114C9.23599 16.1954 10.2676 16.7176 11.6431 17.278C12.7384 17.7365 13.6172 18.1567 14.2794 18.5388C14.9672 18.9209 15.5403 19.4176 15.9988 20.0289C16.4827 20.6148 16.7247 21.3407 16.7247 22.2068C16.7247 22.5124 16.6865 22.8563 16.6101 23.2384C16.2535 25.0214 15.2856 26.3841 13.7063 27.3266C12.1525 28.2436 10.2676 28.7021 8.05155 28.7021ZM27.3202 28.7021C24.8494 28.7021 22.9263 28.0398 21.5508 26.7153C20.2008 25.3907 19.5258 23.595 19.5258 21.328C19.5258 20.4874 19.615 19.6596 19.7933 18.8445C20.4301 15.7369 21.8056 13.3171 23.9197 11.585C26.0593 9.82745 28.6065 8.94867 31.5613 8.94867C33.3188 8.94867 34.758 9.21613 35.8787 9.75103C36.9995 10.2859 37.5599 11.0756 37.5599 12.1199C37.5599 12.2218 37.5344 12.4256 37.4835 12.7312C37.4071 13.0624 37.2288 13.3808 36.9486 13.6864C36.6684 13.9921 36.3372 14.1449 35.9552 14.1449C35.5476 14.1449 35.2547 14.0303 35.0764 13.8011C34.8981 13.5463 34.8344 13.2534 34.8853 12.9223C34.9363 12.7694 35 12.6039 35.0764 12.4256C35.1528 12.2218 35.2037 12.0562 35.2292 11.9289C35.3056 11.5213 35.0127 11.152 34.3504 10.8209C33.7136 10.4642 32.9495 10.2859 32.058 10.2859C29.7655 10.2859 27.8424 11.0501 26.2886 12.5784C24.7348 14.0812 23.6777 16.2336 23.1174 19.0355C22.9645 19.7997 22.8881 20.5766 22.8881 21.3662C22.8881 23.1492 23.3339 24.6011 24.2254 25.7219C25.1424 26.8426 26.556 27.403 28.4664 27.403C29.4344 27.403 30.466 27.2375 31.5613 26.9063C32.6566 26.5497 33.6245 26.0912 34.4651 25.5308L34.5415 26.5242C33.7264 27.161 32.682 27.6832 31.4084 28.0908C30.1603 28.4983 28.7976 28.7021 27.3202 28.7021ZM44.5734 7.26753C44.064 7.26753 43.6564 7.12744 43.3507 6.84724C43.0451 6.56706 42.8923 6.18498 42.8923 5.70101C42.8923 4.96233 43.1342 4.33827 43.6182 3.82883C44.1276 3.3194 44.7262 3.06468 45.414 3.06468C45.9489 3.06468 46.3564 3.20477 46.6366 3.48496C46.9423 3.76515 47.0951 4.14723 47.0951 4.6312C47.0951 4.73308 47.0696 4.91138 47.0187 5.1661C46.8913 5.8029 46.6111 6.31234 46.1781 6.69441C45.7451 7.07649 45.2102 7.26753 44.5734 7.26753ZM41.746 28.7021C41.0583 28.7021 40.5106 28.4346 40.1031 27.8997C39.721 27.3393 39.53 26.6261 39.53 25.7601C39.53 25.378 39.5682 24.9832 39.6446 24.5756L42.472 10.5916C41.5295 10.4388 40.7399 10.235 40.1031 9.98028L40.1413 9.67462L46.1399 9.0633L42.9687 24.6139C42.8668 25.2252 42.8158 25.6837 42.8158 25.9893C42.8158 26.7025 42.9941 27.0592 43.3507 27.0592C43.8602 27.0592 44.4588 26.5879 45.1465 25.6455C45.8597 24.6775 46.4074 23.6841 46.7894 22.6653L47.5154 23.0473C46.8531 24.703 46.0253 26.0657 45.0319 27.1356C44.0385 28.1799 42.9432 28.7021 41.746 28.7021ZM60.392 8.94867C62.8373 8.94867 64.6458 9.30528 65.8175 10.0185C67.0147 10.7317 67.6133 11.7378 67.6133 13.0369C67.6133 13.3935 67.5751 13.7629 67.4987 14.1449C66.9892 16.6666 65.1935 18.4497 62.1114 19.494C59.0547 20.5129 55.7816 21.0733 52.292 21.1752C52.241 23.0601 52.674 24.5756 53.591 25.7219C54.508 26.8426 55.9217 27.403 57.8321 27.403C58.8 27.403 59.8444 27.2375 60.9651 26.9063C62.1114 26.5497 63.1302 26.0912 64.0217 25.5308L64.0982 26.5242C63.2831 27.1356 62.2132 27.6577 60.8887 28.0908C59.5896 28.4983 58.2014 28.7021 56.7241 28.7021C54.2533 28.7021 52.3302 28.0398 50.9547 26.7153C49.5792 25.3907 48.8915 23.595 48.8915 21.328C48.8915 20.4874 48.9806 19.6596 49.1589 18.8445C49.7957 15.8133 51.1075 13.4062 53.0943 11.6232C55.1066 9.84019 57.5392 8.94867 60.392 8.94867ZM64.5567 14.2596C64.6076 13.9029 64.6331 13.6482 64.6331 13.4954C64.6331 12.5784 64.2892 11.827 63.6015 11.2411C62.9392 10.6298 61.8694 10.3242 60.392 10.3242C58.3288 10.3242 56.6222 11.1647 55.2722 12.8459C53.9222 14.5015 53.0179 16.4629 52.5594 18.7299C52.4575 19.2393 52.3938 19.6086 52.3684 19.8379C55.3741 19.6596 58.0613 19.1501 60.4302 18.3096C62.7991 17.4435 64.1746 16.0935 64.5567 14.2596ZM92.8179 22.8563C92.1046 24.5374 91.1749 25.9384 90.0287 27.0592C88.8825 28.1544 87.5961 28.7021 86.1697 28.7021C85.3291 28.7021 84.6541 28.371 84.1447 27.7087C83.6353 27.0464 83.3805 26.1931 83.3805 25.1488C83.3805 24.7667 83.4187 24.3464 83.4952 23.8879L84.756 17.7747C85.189 15.686 85.4056 14.1449 85.4056 13.1515C85.4056 12.26 85.24 11.6232 84.9089 11.2411C84.5777 10.8591 84.0301 10.668 83.2659 10.668C82.3999 10.668 81.3555 11.2411 80.1329 12.3874C78.9102 13.5081 77.6876 15.011 76.4649 16.8959L74.1343 28.32L69.2055 28.7021L72.8734 10.7444C72.1602 10.6171 71.3706 10.3878 70.5045 10.0567L70.5809 9.67462L78.0697 8.91046L76.9998 14.2213C78.0187 12.7185 79.2159 11.4704 80.5914 10.477C81.9923 9.45811 83.4824 8.94867 85.0617 8.94867C86.7428 8.94867 88.0419 9.31801 88.9589 10.0567C89.8759 10.7699 90.3344 11.8652 90.3344 13.3426C90.3344 14.0303 90.2707 14.6416 90.1433 15.1765L88.2329 24.461C88.131 24.9705 88.0801 25.3398 88.0801 25.569C88.0801 26.2058 88.2711 26.5242 88.6532 26.5242C89.0862 26.5242 89.6339 26.0785 90.2961 25.187C90.9839 24.2955 91.5315 23.3657 91.9391 22.3978L92.8179 22.8563ZM102.25 28.7021C99.575 28.7021 97.5117 28.0398 96.0598 26.7153C94.608 25.3907 93.882 23.5822 93.882 21.2898C93.882 20.4492 93.9712 19.6341 94.1495 18.8445C94.7863 15.7369 96.2254 13.3171 98.4669 11.585C100.708 9.82745 103.383 8.94867 106.491 8.94867C108.579 8.94867 110.197 9.26707 111.343 9.90387C112.515 10.5152 113.101 11.4194 113.101 12.6166C113.101 12.7694 113.075 13.0242 113.024 13.3808C112.922 13.8138 112.68 14.2213 112.298 14.6034C111.942 14.96 111.534 15.1383 111.075 15.1383C110.617 15.1383 110.273 15.0237 110.044 14.7945C109.815 14.5652 109.7 14.285 109.7 13.9539C109.7 13.7501 109.776 13.4827 109.929 13.1515C110.082 12.8204 110.171 12.5784 110.197 12.4256C110.299 11.9926 110.044 11.585 109.433 11.2029C108.847 10.8209 108.083 10.6298 107.14 10.6298C105.153 10.6298 103.447 11.343 102.02 12.7694C100.594 14.1704 99.6004 16.2209 99.0401 18.9209C98.8618 19.7105 98.7726 20.5256 98.7726 21.3662C98.7726 23.0473 99.1801 24.4228 99.9952 25.4926C100.81 26.537 102.071 27.0592 103.778 27.0592C104.771 27.0592 105.841 26.8808 106.987 26.5242C108.134 26.1676 109.152 25.6709 110.044 25.0341L110.273 26.295C109.331 26.9827 108.159 27.5559 106.758 28.0143C105.357 28.4728 103.854 28.7021 102.25 28.7021ZM125.472 8.94867C128.172 8.94867 130.159 9.29254 131.432 9.98028C132.731 10.6425 133.381 11.6614 133.381 13.0369C133.381 13.368 133.343 13.7501 133.266 14.1831C132.782 16.6284 131.05 18.386 128.07 19.4558C125.09 20.5002 121.778 21.086 118.136 21.2134C118.085 22.9709 118.467 24.3846 119.282 25.4544C120.097 26.5242 121.358 27.0592 123.065 27.0592C124.084 27.0592 125.192 26.8808 126.389 26.5242C127.611 26.1676 128.707 25.6709 129.675 25.0341L129.904 26.295C128.961 26.9827 127.751 27.5559 126.274 28.0143C124.797 28.4728 123.256 28.7021 121.651 28.7021C118.976 28.7021 116.9 28.0398 115.423 26.7153C113.971 25.3907 113.245 23.5695 113.245 21.2516C113.245 20.6148 113.334 19.8124 113.513 18.8445C114.15 15.7879 115.525 13.3808 117.639 11.6232C119.753 9.84019 122.364 8.94867 125.472 8.94867ZM129.063 13.4954C129.063 12.6294 128.77 11.9416 128.185 11.4322C127.624 10.9227 126.707 10.668 125.434 10.668C123.625 10.668 122.109 11.4704 120.887 13.0751C119.69 14.6544 118.875 16.5393 118.442 18.7299C118.391 18.9082 118.34 19.2011 118.289 19.6086C125.472 18.9209 129.063 16.8832 129.063 13.4954Z" fill="url(#paint0_linear_2226_2595)"/>
<defs>
<linearGradient id="paint0_linear_2226_2595" x1="0" y1="15.6801" x2="134.4" y2="15.6801" gradientUnits="userSpaceOnUse">
<stop stop-color="#00ADCC"/>
<stop offset="1" stop-color="#41B983"/>
</linearGradient>
</defs>
</svg>
