<svg width="211" height="41" viewBox="0 0 211 41" fill="none" xmlns="http://www.w3.org/2000/svg">
<path d="M11.0356 40.597C8.28942 40.597 5.92133 40.1791 3.93134 39.3433C1.94136 38.5075 0.946362 37.214 0.946362 35.4628C0.946362 35.3036 0.986162 34.9852 1.06576 34.5076C1.14536 34.03 1.40406 33.5723 1.84186 33.1345C2.31945 32.6569 2.87665 32.4181 3.51345 32.4181C4.11044 32.4181 4.58804 32.6171 4.94624 33.0151C5.30443 33.3733 5.44373 33.8111 5.36413 34.3285C5.32433 34.5673 5.24473 34.8459 5.12534 35.1643C5.00594 35.4827 4.94624 35.7016 4.94624 35.821C4.94624 36.4578 5.50343 37.0747 6.61783 37.6717C7.73222 38.2289 9.02571 38.5075 10.4983 38.5075C12.8863 38.5075 14.8166 37.9702 16.2892 36.8956C17.7618 35.821 18.697 34.3285 19.095 32.4181C19.1746 32.0202 19.2144 31.7217 19.2144 31.5227C19.2144 30.2889 18.697 29.3138 17.6623 28.5974C16.6275 27.8412 15.0355 27.0452 12.8863 26.2094C11.2147 25.5328 9.84161 24.896 8.76701 24.299C7.69242 23.702 6.77702 22.9458 6.02083 22.0304C5.30443 21.0752 4.94624 19.921 4.94624 18.5678C4.94624 15.6625 6.14023 13.4735 8.52821 12.0009C10.9162 10.4885 13.8216 9.73229 17.2444 9.73229C19.9905 9.73229 22.3188 10.1104 24.2292 10.8666C26.1396 11.6228 27.0948 12.8566 27.0948 14.568C27.0948 14.7272 27.055 15.0456 26.9754 15.5232C26.8958 15.961 26.6172 16.3788 26.1396 16.7768C25.7018 17.1748 25.1446 17.3738 24.468 17.3738C23.9108 17.3738 23.4531 17.2146 23.0949 16.8962C22.7367 16.5778 22.5775 16.16 22.6173 15.6426C22.6969 15.4436 22.7765 15.2247 22.8561 14.9859C22.9357 14.7471 23.0153 14.5282 23.0949 14.3292C23.2143 13.6924 22.7566 13.1153 21.7218 12.5979C20.7268 12.0407 19.4532 11.7621 17.9011 11.7621C15.8315 11.7621 14.14 12.1203 12.8266 12.8367C11.5132 13.5531 10.6774 14.6874 10.3192 16.2395C10.2396 16.6375 10.1998 16.936 10.1998 17.135C10.1998 18.4484 10.7371 19.5031 11.8117 20.2991C12.8863 21.0553 14.4982 21.8712 16.6474 22.7468C18.3588 23.4632 19.7318 24.1199 20.7666 24.7169C21.8412 25.3139 22.7367 26.09 23.4531 27.0452C24.2093 27.9606 24.5874 29.0949 24.5874 30.4481C24.5874 30.9257 24.5277 31.463 24.4083 32.06C23.8511 34.8459 22.3387 36.9752 19.8711 38.4478C17.4434 39.8806 14.4982 40.597 11.0356 40.597ZM41.1429 40.597C37.2823 40.597 34.2774 39.5622 32.1282 37.4926C30.0188 35.423 28.9641 32.6171 28.9641 29.075C28.9641 27.7616 29.1034 26.4681 29.382 25.1945C30.377 20.3389 32.5262 16.5579 35.8296 13.8516C39.1728 11.1054 43.1528 9.73229 47.7695 9.73229C50.5157 9.73229 52.7644 10.1502 54.5156 10.986C56.2668 11.8218 57.1424 13.0556 57.1424 14.6874C57.1424 14.8466 57.1026 15.165 57.023 15.6426C56.9036 16.16 56.625 16.6574 56.1872 17.135C55.7494 17.6126 55.232 17.8514 54.635 17.8514C53.9982 17.8514 53.5405 17.6723 53.2619 17.3141C52.9833 16.9161 52.8838 16.4584 52.9634 15.9411C53.043 15.7023 53.1425 15.4436 53.2619 15.165C53.3813 14.8466 53.4609 14.5879 53.5007 14.3889C53.6201 13.7521 53.1624 13.175 52.1276 12.6576C51.1326 12.1004 49.9386 11.8218 48.5456 11.8218C44.9636 11.8218 41.9588 13.0158 39.531 15.4038C37.1032 17.7519 35.4515 21.115 34.5759 25.493C34.3371 26.687 34.2177 27.9009 34.2177 29.1347C34.2177 31.9207 34.9142 34.1892 36.3072 35.9404C37.74 37.6916 39.9489 38.5672 42.9339 38.5672C44.4462 38.5672 46.0581 38.3085 47.7695 37.7911C49.4809 37.2339 50.9933 36.5175 52.3067 35.6419L52.4261 37.1941C51.1525 38.1891 49.5207 39.005 47.5307 39.6418C45.5805 40.2786 43.4512 40.597 41.1429 40.597ZM68.101 7.10551C67.305 7.10551 66.6682 6.88661 66.1906 6.44881C65.713 6.01102 65.4742 5.41402 65.4742 4.65782C65.4742 3.50363 65.8523 2.52854 66.6085 1.73254C67.4045 0.936548 68.3398 0.538551 69.4144 0.538551C70.2502 0.538551 70.887 0.757449 71.3248 1.19525C71.8023 1.63304 72.0411 2.23004 72.0411 2.98624C72.0411 3.14543 72.0013 3.42403 71.9217 3.82203C71.7228 4.81702 71.285 5.61302 70.6084 6.21001C69.9318 6.80701 69.096 7.10551 68.101 7.10551ZM63.6832 40.597C62.6086 40.597 61.7529 40.1791 61.1161 39.3433C60.5191 38.4677 60.2206 37.3533 60.2206 36.0001C60.2206 35.4031 60.2803 34.7862 60.3997 34.1494L64.8175 12.2994C63.3449 12.0606 62.1111 11.7422 61.1161 11.3442L61.1758 10.8666L70.5487 9.91139L65.5936 34.2091C65.4344 35.1643 65.3548 35.8807 65.3548 36.3583C65.3548 37.4727 65.6334 38.0299 66.1906 38.0299C66.9866 38.0299 67.9219 37.2936 68.9965 35.821C70.1109 34.3086 70.9666 32.7564 71.5636 31.1645L72.6978 31.7615C71.663 34.3484 70.3696 36.4777 68.8174 38.1493C67.2652 39.7811 65.5538 40.597 63.6832 40.597ZM92.8175 9.73229C96.6383 9.73229 99.4641 10.2895 101.295 11.4039C103.165 12.5183 104.101 14.0904 104.101 16.1202C104.101 16.6773 104.041 17.2544 103.922 17.8514C103.126 21.7916 100.32 24.5776 95.504 26.2094C90.7281 27.8014 85.6138 28.677 80.1612 28.8362C80.0816 31.7814 80.7582 34.1494 82.191 35.9404C83.6238 37.6916 85.8327 38.5672 88.8177 38.5672C90.3301 38.5672 91.9619 38.3085 93.713 37.7911C95.504 37.2339 97.096 36.5175 98.489 35.6419L98.6084 37.1941C97.3348 38.1493 95.6632 38.9652 93.5936 39.6418C91.5639 40.2786 89.3948 40.597 87.0864 40.597C83.2258 40.597 80.2209 39.5622 78.0717 37.4926C75.9226 35.423 74.848 32.6171 74.848 29.075C74.848 27.7616 74.9873 26.4681 75.2659 25.1945C76.2609 20.4583 78.3105 16.6972 81.4149 13.9113C84.5591 11.1253 88.36 9.73229 92.8175 9.73229ZM99.3248 18.0305C99.4044 17.4733 99.4442 17.0753 99.4442 16.8365C99.4442 15.4038 98.9069 14.2297 97.8323 13.3143C96.7975 12.3591 95.1259 11.8815 92.8175 11.8815C89.5938 11.8815 86.9272 13.1949 84.8178 15.8217C82.7084 18.4086 81.2955 21.4732 80.5791 25.0154C80.4199 25.8114 80.3204 26.3885 80.2806 26.7467C84.977 26.4681 89.1759 25.6721 92.8772 24.3587C96.5786 23.0055 98.7278 20.8961 99.3248 18.0305ZM144.737 31.3436C143.582 34.0101 142.05 36.219 140.14 37.9702C138.269 39.7214 136.16 40.597 133.812 40.597C132.379 40.597 131.165 40.1194 130.17 39.1642C129.215 38.1692 128.737 36.816 128.737 35.1046C128.737 34.5474 128.797 33.9504 128.916 33.3136L130.886 23.8811C131.643 19.9807 132.021 17.3141 132.021 15.8814C132.021 14.6874 131.802 13.8516 131.364 13.374C130.966 12.8964 130.269 12.6576 129.274 12.6576C128.041 12.6576 126.488 13.5133 124.618 15.2247C122.787 16.8962 120.916 19.1051 119.006 21.8513L115.305 40L106.469 40.597L112.2 12.7173C111.285 12.5581 110.051 12.18 108.499 11.583L108.618 10.9263L121.513 9.61289L119.842 17.6723C121.513 15.4038 123.424 13.5133 125.573 12.0009C127.722 10.4885 130.031 9.73229 132.498 9.73229C135.205 9.73229 137.274 10.2895 138.707 11.4039C140.14 12.4785 140.856 14.1302 140.856 16.3589C140.856 17.0753 140.757 17.9708 140.558 19.0454L137.573 33.6718C137.453 34.2688 137.394 34.8061 137.394 35.2837C137.394 36.2787 137.692 36.7762 138.289 36.7762C138.966 36.7762 139.782 36.1195 140.737 34.8061C141.732 33.4927 142.568 32.0799 143.244 30.5675L144.737 31.3436ZM159.804 40.597C155.466 40.597 152.122 39.5622 149.774 37.4926C147.466 35.423 146.312 32.5773 146.312 28.9556C146.312 27.9606 146.451 26.7069 146.73 25.1945C147.725 20.3389 149.993 16.5579 153.535 13.8516C157.117 11.1054 161.436 9.73229 166.49 9.73229C169.953 9.73229 172.599 10.2497 174.43 11.2845C176.261 12.3193 177.176 13.8118 177.176 15.762C177.176 16.3589 177.137 16.8166 177.057 17.135C176.898 17.8514 176.48 18.5479 175.803 19.2245C175.166 19.8613 174.47 20.1797 173.714 20.1797C172.958 20.1797 172.381 19.9807 171.983 19.5827C171.585 19.1847 171.386 18.7071 171.386 18.1499C171.386 17.7519 171.545 17.2743 171.863 16.7171C172.102 16.2396 172.241 15.8416 172.281 15.5232C172.4 14.8466 172.022 14.1899 171.147 13.5531C170.311 12.9163 169.137 12.5979 167.624 12.5979C164.759 12.5979 162.251 13.6725 160.102 15.8217C157.953 17.9708 156.441 21.115 155.565 25.2542C155.287 26.5278 155.147 27.8611 155.147 29.2541C155.147 31.8013 155.724 33.8708 156.879 35.4628C158.072 37.015 159.903 37.7911 162.371 37.7911C163.963 37.7911 165.674 37.5125 167.505 36.9553C169.376 36.3583 171.027 35.5424 172.46 34.5076L172.878 36.6568C171.326 37.7712 169.396 38.7065 167.087 39.4627C164.819 40.2189 162.391 40.597 159.804 40.597ZM197.139 9.73229C201.597 9.73229 204.861 10.2497 206.93 11.2845C209 12.2795 210.035 13.8715 210.035 16.0605C210.035 16.4186 209.955 17.0355 209.796 17.9111C209 21.6921 206.313 24.4383 201.736 26.1497C197.199 27.8213 192.065 28.7367 186.334 28.8959C186.254 31.5625 186.772 33.7116 187.886 35.3434C189.04 36.9752 190.911 37.7911 193.498 37.7911C195.09 37.7911 196.861 37.5125 198.811 36.9553C200.801 36.3981 202.572 35.5822 204.124 34.5076L204.482 36.6568C203.01 37.7712 201.04 38.7065 198.572 39.4627C196.144 40.2189 193.617 40.597 190.99 40.597C186.652 40.597 183.309 39.5622 180.961 37.4926C178.652 35.423 177.498 32.5773 177.498 28.9556C177.498 27.9606 177.638 26.7069 177.916 25.1945C178.951 20.3389 181.16 16.5579 184.543 13.8516C187.926 11.1054 192.125 9.73229 197.139 9.73229ZM202.214 16.8365C202.214 15.5232 201.796 14.5083 200.96 13.7919C200.124 13.0357 198.831 12.6576 197.08 12.6576C194.413 12.6576 192.204 13.8715 190.453 16.2993C188.702 18.727 187.488 21.6523 186.811 25.0751L186.632 26.2094C197.02 25.0552 202.214 21.9309 202.214 16.8365Z" fill="#E8F6FC"/>
</svg>
